# xmcd
#
# Track frame offsets:
# 150
# 12876
# 34954
# 57307
# 80978
# 105097
# 122226
# 140620
# 159659
# 179232
# 197190
# 212186
# 227884
# 241725
# 264666
# 267377
# 270929
# 293064
# 303025
# 322237
#
# Disc length: 4575 seconds
#
#
# Revision: 0
# Processed by: cddbd v1.5.2PL0 Copyright (c) Steve Scherf et al.
# Submitted via: FreeRIP 2.945 
#
DISCID=2e11dd14
DTITLE=Pawned CDs - Thank's For the Use of Your Pen
DYEAR=9900
DGENRE=broke
TTITLE0=The Aftermath
TTITLE1=East West Killers
TTITLE2=Shittin' on the World
TTITLE3=The Perfect Drug
TTITLE4=God Gave Rock and Roll to You II
TTITLE5=The Buck Starts Here (acl)
TTITLE6=Rock and Roll All Nite (unplugged)
TTITLE7=Apple of Sodom
TTITLE8=The Hard Way
TTITLE9=He Thinks He'll Keep Her
TTITLE10=Passionate Kisses
TTITLE11=I Feel Lucky
TTITLE12=Good
TTITLE13=Been There, Done That
TTITLE14=another few beers
TTITLE15=dumb prick lookers
TTITLE16=Doin' Time (snoop mix)
TTITLE17=I Gotta Get Drunk
TTITLE18=Cowboy
TTITLE19=The Grand Finale
EXTD=
EXTT0=
EXTT1=
EXTT2=
EXTT3=
EXTT4=
EXTT5=
EXTT6=
EXTT7=
EXTT8=
EXTT9=
EXTT10=
EXTT11=
EXTT12=
EXTT13=
EXTT14=
EXTT15=
EXTT16=
EXTT17=
EXTT18=
EXTT19=
PLAYORDER=
